<svg xmlns="http://www.w3.org/2000/svg" viewBox="400 200 450 200" width="600" height="600">
  <g transform="scale(1.6) translate(-110, -70)">
    <defs>
      <clipPath id="clip-crown">
        <path d="M384.621094 209.257812 L639.460938 209.257812 L639.460938 366.679688 L384.621094 366.679688 Z"/>
      </clipPath>
    </defs>
    <g clip-path="url(#clip-crown)">
      <path fill="#615fff" d="M425.703125 337.914062 L395.613281 337.914062 L395.613281 366.679688 L425.703125 366.679688 L425.703125 337.914062 L446.273438 337.914062 L446.273438 316.023438 L425.703125 316.023438 Z M405.1875 284.507812 L384.667969 284.507812 L384.667969 262.613281 L405.1875 262.613281 L405.1875 284.507812 L425.703125 284.507812 L425.703125 262.613281 L446.273438 262.613281 L446.273438 284.507812 L425.703125 284.507812 L425.703125 305.023438 L405.1875 305.023438 Z M543.414062 209.257812 L591.324219 247.59375 L639.234375 209.257812 L639.234375 366.628906 L447.648438 366.628906 L447.648438 337.863281 L477.738281 337.863281 L477.738281 306.398438 L539.292969 306.398438 L539.292969 337.863281 L507.828125 337.863281 L507.828125 276.308594 L477.738281 276.308594 L477.738281 306.398438 L447.648438 306.398438 L447.648438 284.507812 L468.164062 284.507812 L468.164062 262.613281 L447.648438 262.613281 L447.648438 209.257812 L495.558594 247.59375 Z"/>
    </g>
    <path fill="#ffffff" d="M507.828125 306.449219 L507.828125 337.914062 L539.34375 337.914062 L539.34375 306.449219 Z"/>
  </g>
</svg>




