<svg xmlns="http://www.w3.org/2000/svg" xmlns:xlink="http://www.w3.org/1999/xlink" width="1366" zoomAndPan="magnify" viewBox="0 0 1024.5 576" height="768" preserveAspectRatio="xMidYMid meet" version="1.2"><defs/><g id="c064927766"><g style="fill:#615fff;fill-opacity:1;"><g transform="translate(350.189126, 324.1913)"><path style="stroke:none" d="M 48.671875 -74 C 55.867188 -74 62.3125 -72.351562 68 -69.0625 C 73.695312 -65.78125 78.1875 -61.269531 81.46875 -55.53125 C 84.757812 -49.800781 86.40625 -43.289062 86.40625 -36 C 86.40625 -28.707031 84.757812 -22.195312 81.46875 -16.46875 C 78.1875 -10.738281 73.695312 -6.203125 68 -2.859375 C 62.3125 0.472656 55.867188 2.140625 48.671875 2.140625 C 44.929688 2.140625 41.375 1.601562 38 0.53125 C 34.625 -0.53125 31.554688 -1.992188 28.796875 -3.859375 L 28.796875 26 L 9.328125 26 L 9.328125 -72 L 22.265625 -72 L 25.609375 -65.46875 C 28.628906 -68.132812 32.09375 -70.222656 36 -71.734375 C 39.914062 -73.242188 44.140625 -74 48.671875 -74 Z M 47.078125 -16.265625 C 50.804688 -16.265625 54.160156 -17.128906 57.140625 -18.859375 C 60.117188 -20.597656 62.453125 -22.957031 64.140625 -25.9375 C 65.828125 -28.914062 66.671875 -32.269531 66.671875 -36 C 66.671875 -39.738281 65.828125 -43.09375 64.140625 -46.0625 C 62.453125 -49.039062 60.117188 -51.394531 57.140625 -53.125 C 54.160156 -54.863281 50.804688 -55.734375 47.078125 -55.734375 C 43.253906 -55.734375 39.875 -54.863281 36.9375 -53.125 C 34 -51.394531 31.6875 -49.039062 30 -46.0625 C 28.3125 -43.09375 27.46875 -39.738281 27.46875 -36 C 27.46875 -32.269531 28.3125 -28.914062 30 -25.9375 C 31.6875 -22.957031 34 -20.597656 36.9375 -18.859375 C 39.875 -17.128906 43.253906 -16.265625 47.078125 -16.265625 Z M 47.078125 -16.265625 "/></g></g><g style="fill:#615fff;fill-opacity:1;"><g transform="translate(441.122352, 324.1913)"><path style="stroke:none" d="M 9.328125 -81.609375 L 9.328125 -99.734375 L 28.796875 -99.734375 L 28.796875 -81.609375 Z M 9.328125 0 L 9.328125 -72 L 28.796875 -72 L 28.796875 0 Z M 9.328125 0 "/></g></g><g style="fill:#615fff;fill-opacity:1;"><g transform="translate(479.25565, 324.1913)"><path style="stroke:none" d="M 72.53125 0 L 50.53125 0 L 36.265625 -23.875 L 21.609375 0 L 0.140625 0 L 24.671875 -36.9375 L 1.734375 -72 L 23.734375 -72 L 36.265625 -51.203125 L 49.609375 -72 L 71.078125 -72 L 47.734375 -38 Z M 72.53125 0 "/></g></g><g style="fill:#615fff;fill-opacity:1;"><g transform="translate(551.922238, 324.1913)"><path style="stroke:none" d="M 79.203125 -36.265625 C 79.203125 -34.398438 79.070312 -32.488281 78.8125 -30.53125 L 24.40625 -30.53125 C 25.207031 -25.644531 27.160156 -21.890625 30.265625 -19.265625 C 33.378906 -16.640625 37.289062 -15.328125 42 -15.328125 C 45.382812 -15.328125 48.410156 -16.0625 51.078125 -17.53125 C 53.742188 -19 55.785156 -21.023438 57.203125 -23.609375 L 77.734375 -23.609375 C 75.066406 -15.785156 70.53125 -9.5625 64.125 -4.9375 C 57.726562 -0.3125 50.351562 2 42 2 C 34.882812 2 28.503906 0.332031 22.859375 -3 C 17.222656 -6.332031 12.78125 -10.863281 9.53125 -16.59375 C 6.289062 -22.332031 4.671875 -28.800781 4.671875 -36 C 4.671875 -43.195312 6.289062 -49.660156 9.53125 -55.390625 C 12.78125 -61.128906 17.222656 -65.664062 22.859375 -69 C 28.503906 -72.332031 34.882812 -74 42 -74 C 49.382812 -74 55.875 -72.285156 61.46875 -68.859375 C 67.070312 -65.441406 71.425781 -60.890625 74.53125 -55.203125 C 77.644531 -49.515625 79.203125 -43.203125 79.203125 -36.265625 Z M 42 -57.46875 C 37.644531 -57.46875 33.976562 -56.265625 31 -53.859375 C 28.019531 -51.460938 26 -48.132812 24.9375 -43.875 L 59.734375 -43.875 C 56.890625 -52.9375 50.976562 -57.46875 42 -57.46875 Z M 42 -57.46875 "/></g></g><g style="fill:#615fff;fill-opacity:1;"><g transform="translate(635.655477, 324.1913)"><path style="stroke:none" d="M 9.328125 0 L 9.328125 -98 L 28.796875 -98 L 28.796875 0 Z M 9.328125 0 "/></g></g></g></svg>