<svg xmlns="http://www.w3.org/2000/svg" xmlns:xlink="http://www.w3.org/1999/xlink" width="1366" zoomAndPan="magnify" viewBox="0 0 1024.5 576" height="768" preserveAspectRatio="xMidYMid meet" version="1.2"><defs><clipPath id="3a7962cf22"><path d="M 46.058594 230.902344 L 264.167969 230.902344 L 264.167969 365.835938 L 46.058594 365.835938 Z M 46.058594 230.902344 "/></clipPath></defs><g id="c16d658559"><g style="fill:#7c86ff;fill-opacity:1;"><g transform="translate(298.527009, 329.608287)"><path style="stroke:none" d="M 40.703125 -61.875 C 46.722656 -61.875 52.109375 -60.5 56.859375 -57.75 C 61.617188 -55 65.375 -51.226562 68.125 -46.4375 C 70.875 -41.644531 72.25 -36.203125 72.25 -30.109375 C 72.25 -24.015625 70.875 -18.566406 68.125 -13.765625 C 65.375 -8.972656 61.617188 -5.179688 56.859375 -2.390625 C 52.109375 0.390625 46.722656 1.78125 40.703125 1.78125 C 37.578125 1.78125 34.601562 1.332031 31.78125 0.4375 C 28.957031 -0.445312 26.390625 -1.671875 24.078125 -3.234375 L 24.078125 21.75 L 7.8125 21.75 L 7.8125 -60.203125 L 18.625 -60.203125 L 21.40625 -54.75 C 23.9375 -56.976562 26.835938 -58.722656 30.109375 -59.984375 C 33.378906 -61.242188 36.910156 -61.875 40.703125 -61.875 Z M 39.359375 -13.609375 C 42.484375 -13.609375 45.289062 -14.332031 47.78125 -15.78125 C 50.269531 -17.226562 52.21875 -19.195312 53.625 -21.6875 C 55.039062 -24.175781 55.75 -26.984375 55.75 -30.109375 C 55.75 -33.222656 55.039062 -36.023438 53.625 -38.515625 C 52.21875 -41.015625 50.269531 -42.988281 47.78125 -44.4375 C 45.289062 -45.882812 42.484375 -46.609375 39.359375 -46.609375 C 36.160156 -46.609375 33.332031 -45.882812 30.875 -44.4375 C 28.425781 -42.988281 26.492188 -41.015625 25.078125 -38.515625 C 23.671875 -36.023438 22.96875 -33.222656 22.96875 -30.109375 C 22.96875 -26.984375 23.671875 -24.175781 25.078125 -21.6875 C 26.492188 -19.195312 28.425781 -17.226562 30.875 -15.78125 C 33.332031 -14.332031 36.160156 -13.609375 39.359375 -13.609375 Z M 39.359375 -13.609375 "/></g></g><g style="fill:#7c86ff;fill-opacity:1;"><g transform="translate(374.564758, 329.608287)"><path style="stroke:none" d="M 7.8125 -68.234375 L 7.8125 -83.40625 L 24.078125 -83.40625 L 24.078125 -68.234375 Z M 7.8125 0 L 7.8125 -60.203125 L 24.078125 -60.203125 L 24.078125 0 Z M 7.8125 0 "/></g></g><g style="fill:#7c86ff;fill-opacity:1;"><g transform="translate(406.451563, 329.608287)"><path style="stroke:none" d="M 47.28125 -60.203125 L 64.21875 -60.203125 L 40.25 0 L 25.203125 0 L 0.78125 -60.203125 L 18.0625 -60.203125 L 32.890625 -19.84375 Z M 47.28125 -60.203125 "/></g></g><g style="fill:#7c86ff;fill-opacity:1;"><g transform="translate(471.563076, 329.608287)"><path style="stroke:none" d="M 36.453125 1.671875 C 30.210938 1.671875 24.640625 0.28125 19.734375 -2.5 C 14.828125 -5.289062 10.960938 -9.082031 8.140625 -13.875 C 5.316406 -18.675781 3.90625 -24.085938 3.90625 -30.109375 C 3.90625 -36.203125 5.316406 -41.644531 8.140625 -46.4375 C 10.960938 -51.226562 14.828125 -55 19.734375 -57.75 C 24.640625 -60.5 30.210938 -61.875 36.453125 -61.875 C 42.628906 -61.875 48.171875 -60.5 53.078125 -57.75 C 57.984375 -55 61.847656 -51.226562 64.671875 -46.4375 C 67.492188 -41.644531 68.90625 -36.203125 68.90625 -30.109375 C 68.90625 -24.085938 67.492188 -18.675781 64.671875 -13.875 C 61.847656 -9.082031 57.984375 -5.289062 53.078125 -2.5 C 48.171875 0.28125 42.628906 1.671875 36.453125 1.671875 Z M 36.453125 -13.609375 C 41.140625 -13.609375 44.96875 -15.128906 47.9375 -18.171875 C 50.914062 -21.222656 52.40625 -25.203125 52.40625 -30.109375 C 52.40625 -35.015625 50.914062 -38.988281 47.9375 -42.03125 C 44.96875 -45.082031 41.140625 -46.609375 36.453125 -46.609375 C 31.703125 -46.609375 27.835938 -45.082031 24.859375 -42.03125 C 21.890625 -38.988281 20.40625 -35.015625 20.40625 -30.109375 C 20.40625 -25.203125 21.890625 -21.222656 24.859375 -18.171875 C 27.835938 -15.128906 31.703125 -13.609375 36.453125 -13.609375 Z M 36.453125 -13.609375 "/></g></g><g style="fill:#7c86ff;fill-opacity:1;"><g transform="translate(544.367547, 329.608287)"><path style="stroke:none" d="M 37.234375 -14.5 L 44.59375 -14.5 L 44.59375 0 L 33.109375 0 C 26.492188 0 21.269531 -1.910156 17.4375 -5.734375 C 13.613281 -9.566406 11.703125 -14.828125 11.703125 -21.515625 L 11.703125 -47.171875 L 0.78125 -47.171875 L 0.78125 -50.625 L 24.640625 -75.9375 L 27.65625 -75.9375 L 27.65625 -60.203125 L 44.265625 -60.203125 L 44.265625 -47.171875 L 27.984375 -47.171875 L 27.984375 -23.640625 C 27.984375 -20.742188 28.78125 -18.492188 30.375 -16.890625 C 31.976562 -15.296875 34.265625 -14.5 37.234375 -14.5 Z M 37.234375 -14.5 "/></g></g><g style="fill:#7c86ff;fill-opacity:1;"><g transform="translate(592.309243, 329.608287)"><path style="stroke:none" d=""/></g></g><g style="fill:#7c86ff;fill-opacity:1;"><g transform="translate(618.955894, 329.608287)"><path style="stroke:none" d="M 40.703125 -61.875 C 46.722656 -61.875 52.109375 -60.5 56.859375 -57.75 C 61.617188 -55 65.375 -51.226562 68.125 -46.4375 C 70.875 -41.644531 72.25 -36.203125 72.25 -30.109375 C 72.25 -24.015625 70.875 -18.566406 68.125 -13.765625 C 65.375 -8.972656 61.617188 -5.179688 56.859375 -2.390625 C 52.109375 0.390625 46.722656 1.78125 40.703125 1.78125 C 37.578125 1.78125 34.601562 1.332031 31.78125 0.4375 C 28.957031 -0.445312 26.390625 -1.671875 24.078125 -3.234375 L 24.078125 21.75 L 7.8125 21.75 L 7.8125 -60.203125 L 18.625 -60.203125 L 21.40625 -54.75 C 23.9375 -56.976562 26.835938 -58.722656 30.109375 -59.984375 C 33.378906 -61.242188 36.910156 -61.875 40.703125 -61.875 Z M 39.359375 -13.609375 C 42.484375 -13.609375 45.289062 -14.332031 47.78125 -15.78125 C 50.269531 -17.226562 52.21875 -19.195312 53.625 -21.6875 C 55.039062 -24.175781 55.75 -26.984375 55.75 -30.109375 C 55.75 -33.222656 55.039062 -36.023438 53.625 -38.515625 C 52.21875 -41.015625 50.269531 -42.988281 47.78125 -44.4375 C 45.289062 -45.882812 42.484375 -46.609375 39.359375 -46.609375 C 36.160156 -46.609375 33.332031 -45.882812 30.875 -44.4375 C 28.425781 -42.988281 26.492188 -41.015625 25.078125 -38.515625 C 23.671875 -36.023438 22.96875 -33.222656 22.96875 -30.109375 C 22.96875 -26.984375 23.671875 -24.175781 25.078125 -21.6875 C 26.492188 -19.195312 28.425781 -17.226562 30.875 -15.78125 C 33.332031 -14.332031 36.160156 -13.609375 39.359375 -13.609375 Z M 39.359375 -13.609375 "/></g></g><g style="fill:#7c86ff;fill-opacity:1;"><g transform="translate(694.993643, 329.608287)"><path style="stroke:none" d="M 38.578125 -60.546875 L 43.9375 -60.546875 L 43.9375 -45.15625 L 36.90625 -45.15625 C 32.300781 -45.15625 29.007812 -44.078125 27.03125 -41.921875 C 25.0625 -39.765625 24.078125 -36.234375 24.078125 -31.328125 L 24.078125 0 L 7.8125 0 L 7.8125 -60.203125 L 18.28125 -60.203125 L 21.1875 -52.84375 C 25.269531 -57.976562 31.066406 -60.546875 38.578125 -60.546875 Z M 38.578125 -60.546875 "/></g></g><g style="fill:#7c86ff;fill-opacity:1;"><g transform="translate(740.371013, 329.608287)"><path style="stroke:none" d="M 7.8125 -68.234375 L 7.8125 -83.40625 L 24.078125 -83.40625 L 24.078125 -68.234375 Z M 7.8125 0 L 7.8125 -60.203125 L 24.078125 -60.203125 L 24.078125 0 Z M 7.8125 0 "/></g></g><g style="fill:#7c86ff;fill-opacity:1;"><g transform="translate(772.257794, 329.608287)"><path style="stroke:none" d="M 42.140625 -61.65625 C 48.984375 -61.65625 54.390625 -59.367188 58.359375 -54.796875 C 62.335938 -50.222656 64.328125 -44.109375 64.328125 -36.453125 L 64.328125 0 L 48.0625 0 L 48.0625 -33.890625 C 48.0625 -42.890625 44.566406 -47.390625 37.578125 -47.390625 C 33.410156 -47.390625 30.117188 -45.972656 27.703125 -43.140625 C 25.285156 -40.316406 24.078125 -36.492188 24.078125 -31.671875 L 24.078125 0 L 7.8125 0 L 7.8125 -60.203125 L 18.953125 -60.203125 L 22.1875 -52.734375 C 24.414062 -55.484375 27.273438 -57.65625 30.765625 -59.25 C 34.265625 -60.851562 38.054688 -61.65625 42.140625 -61.65625 Z M 42.140625 -61.65625 "/></g></g><g style="fill:#7c86ff;fill-opacity:1;"><g transform="translate(843.724388, 329.608287)"><path style="stroke:none" d="M 35.796875 1.671875 C 29.773438 1.671875 24.347656 0.257812 19.515625 -2.5625 C 14.679688 -5.382812 10.867188 -9.210938 8.078125 -14.046875 C 5.296875 -18.878906 3.90625 -24.304688 3.90625 -30.328125 C 3.90625 -36.347656 5.296875 -41.734375 8.078125 -46.484375 C 10.867188 -51.242188 14.679688 -55 19.515625 -57.75 C 24.347656 -60.5 29.8125 -61.875 35.90625 -61.875 C 41.101562 -61.875 45.835938 -60.851562 50.109375 -58.8125 C 54.390625 -56.769531 57.957031 -53.890625 60.8125 -50.171875 C 63.675781 -46.453125 65.59375 -42.140625 66.5625 -37.234375 L 50.390625 -37.234375 C 49.054688 -40.210938 47.109375 -42.519531 44.546875 -44.15625 C 41.984375 -45.789062 39.066406 -46.609375 35.796875 -46.609375 C 32.890625 -46.609375 30.265625 -45.882812 27.921875 -44.4375 C 25.585938 -42.988281 23.75 -41.035156 22.40625 -38.578125 C 21.070312 -36.128906 20.40625 -33.34375 20.40625 -30.21875 C 20.40625 -27.09375 21.070312 -24.285156 22.40625 -21.796875 C 23.75 -19.304688 25.585938 -17.316406 27.921875 -15.828125 C 30.265625 -14.347656 32.890625 -13.609375 35.796875 -13.609375 C 39.140625 -13.609375 42.054688 -14.476562 44.546875 -16.21875 C 47.035156 -17.96875 48.984375 -20.476562 50.390625 -23.75 L 66.78125 -23.75 C 65.820312 -18.695312 63.890625 -14.253906 60.984375 -10.421875 C 58.085938 -6.597656 54.484375 -3.625 50.171875 -1.5 C 45.859375 0.613281 41.066406 1.671875 35.796875 1.671875 Z M 35.796875 1.671875 "/></g></g><g style="fill:#7c86ff;fill-opacity:1;"><g transform="translate(913.40708, 329.608287)"><path style="stroke:none" d="M 66.234375 -30.328125 C 66.234375 -28.765625 66.117188 -27.164062 65.890625 -25.53125 L 20.40625 -25.53125 C 21.070312 -21.445312 22.707031 -18.304688 25.3125 -16.109375 C 27.914062 -13.921875 31.1875 -12.828125 35.125 -12.828125 C 37.945312 -12.828125 40.472656 -13.4375 42.703125 -14.65625 C 44.929688 -15.882812 46.640625 -17.578125 47.828125 -19.734375 L 65 -19.734375 C 62.769531 -13.191406 58.976562 -7.988281 53.625 -4.125 C 48.28125 -0.257812 42.113281 1.671875 35.125 1.671875 C 29.175781 1.671875 23.84375 0.28125 19.125 -2.5 C 14.40625 -5.289062 10.6875 -9.082031 7.96875 -13.875 C 5.257812 -18.675781 3.90625 -24.085938 3.90625 -30.109375 C 3.90625 -36.128906 5.257812 -41.535156 7.96875 -46.328125 C 10.6875 -51.117188 14.40625 -54.90625 19.125 -57.6875 C 23.84375 -60.476562 29.175781 -61.875 35.125 -61.875 C 41.289062 -61.875 46.710938 -60.441406 51.390625 -57.578125 C 56.078125 -54.722656 59.722656 -50.914062 62.328125 -46.15625 C 64.929688 -41.40625 66.234375 -36.128906 66.234375 -30.328125 Z M 35.125 -48.0625 C 31.476562 -48.0625 28.410156 -47.054688 25.921875 -45.046875 C 23.429688 -43.035156 21.738281 -40.25 20.84375 -36.6875 L 49.953125 -36.6875 C 47.578125 -44.269531 42.632812 -48.0625 35.125 -48.0625 Z M 35.125 -48.0625 "/></g></g><g clip-rule="nonzero" clip-path="url(#3a7962cf22)"><path style=" stroke:none;fill-rule:nonzero;fill:#7c86ff;fill-opacity:1;" d="M 81.234375 341.085938 L 55.464844 341.085938 L 55.464844 365.722656 L 81.234375 365.722656 L 81.234375 341.085938 L 98.851562 341.085938 L 98.851562 322.339844 L 81.234375 322.339844 Z M 63.664062 295.347656 L 46.089844 295.347656 L 46.089844 276.597656 L 63.664062 276.597656 L 63.664062 295.347656 L 81.234375 295.347656 L 81.234375 276.597656 L 98.851562 276.597656 L 98.851562 295.347656 L 81.234375 295.347656 L 81.234375 312.917969 L 63.664062 312.917969 Z M 182.042969 230.902344 L 223.074219 263.734375 L 264.105469 230.902344 L 264.105469 365.679688 L 100.027344 365.679688 L 100.027344 341.042969 L 125.796875 341.042969 L 125.796875 314.097656 L 178.511719 314.097656 L 178.511719 341.042969 L 151.566406 341.042969 L 151.566406 288.328125 L 125.796875 288.328125 L 125.796875 314.097656 L 100.027344 314.097656 L 100.027344 295.347656 L 117.597656 295.347656 L 117.597656 276.597656 L 100.027344 276.597656 L 100.027344 230.902344 L 141.058594 263.734375 Z M 182.042969 230.902344 "/></g><path style=" stroke:none;fill-rule:nonzero;fill:#ffffff;fill-opacity:1;" d="M 151.566406 314.140625 L 151.566406 341.085938 L 178.554688 341.085938 L 178.554688 314.140625 Z M 151.566406 314.140625 "/></g></svg>