<svg xmlns="http://www.w3.org/2000/svg" xmlns:xlink="http://www.w3.org/1999/xlink" width="1366" zoomAndPan="magnify" viewBox="0 0 1024.5 576" height="768" preserveAspectRatio="xMidYMid meet" version="1.2"><defs><clipPath id="88726fa3d3"><path d="M 46.058594 230.902344 L 264.167969 230.902344 L 264.167969 365.835938 L 46.058594 365.835938 Z M 46.058594 230.902344 "/></clipPath></defs><g id="a8dc17bf2b"><g style="fill:#7c86ff ;fill-opacity:1;"><g transform="translate(316.188904, 329.608287)"><path style="stroke:none" d="M 40.703125 -61.875 C 46.722656 -61.875 52.109375 -60.5 56.859375 -57.75 C 61.617188 -55 65.375 -51.226562 68.125 -46.4375 C 70.875 -41.644531 72.25 -36.203125 72.25 -30.109375 C 72.25 -24.015625 70.875 -18.566406 68.125 -13.765625 C 65.375 -8.972656 61.617188 -5.179688 56.859375 -2.390625 C 52.109375 0.390625 46.722656 1.78125 40.703125 1.78125 C 37.578125 1.78125 34.601562 1.332031 31.78125 0.4375 C 28.957031 -0.445312 26.390625 -1.671875 24.078125 -3.234375 L 24.078125 21.75 L 7.8125 21.75 L 7.8125 -60.203125 L 18.625 -60.203125 L 21.40625 -54.75 C 23.9375 -56.976562 26.835938 -58.722656 30.109375 -59.984375 C 33.378906 -61.242188 36.910156 -61.875 40.703125 -61.875 Z M 39.359375 -13.609375 C 42.484375 -13.609375 45.289062 -14.332031 47.78125 -15.78125 C 50.269531 -17.226562 52.21875 -19.195312 53.625 -21.6875 C 55.039062 -24.175781 55.75 -26.984375 55.75 -30.109375 C 55.75 -33.222656 55.039062 -36.023438 53.625 -38.515625 C 52.21875 -41.015625 50.269531 -42.988281 47.78125 -44.4375 C 45.289062 -45.882812 42.484375 -46.609375 39.359375 -46.609375 C 36.160156 -46.609375 33.332031 -45.882812 30.875 -44.4375 C 28.425781 -42.988281 26.492188 -41.015625 25.078125 -38.515625 C 23.671875 -36.023438 22.96875 -33.222656 22.96875 -30.109375 C 22.96875 -26.984375 23.671875 -24.175781 25.078125 -21.6875 C 26.492188 -19.195312 28.425781 -17.226562 30.875 -15.78125 C 33.332031 -14.332031 36.160156 -13.609375 39.359375 -13.609375 Z M 39.359375 -13.609375 "/></g></g><g style="fill:#7c86ff ;fill-opacity:1;"><g transform="translate(392.226652, 329.608287)"><path style="stroke:none" d="M 7.8125 -68.234375 L 7.8125 -83.40625 L 24.078125 -83.40625 L 24.078125 -68.234375 Z M 7.8125 0 L 7.8125 -60.203125 L 24.078125 -60.203125 L 24.078125 0 Z M 7.8125 0 "/></g></g><g style="fill:#7c86ff ;fill-opacity:1;"><g transform="translate(424.113458, 329.608287)"><path style="stroke:none" d="M 60.65625 0 L 42.265625 0 L 30.328125 -19.953125 L 18.0625 0 L 0.109375 0 L 20.625 -30.890625 L 1.453125 -60.203125 L 19.84375 -60.203125 L 30.328125 -42.8125 L 41.484375 -60.203125 L 59.421875 -60.203125 L 39.921875 -31.78125 Z M 60.65625 0 "/></g></g><g style="fill:#7c86ff ;fill-opacity:1;"><g transform="translate(484.876767, 329.608287)"><path style="stroke:none" d="M 66.234375 -30.328125 C 66.234375 -28.765625 66.117188 -27.164062 65.890625 -25.53125 L 20.40625 -25.53125 C 21.070312 -21.445312 22.707031 -18.304688 25.3125 -16.109375 C 27.914062 -13.921875 31.1875 -12.828125 35.125 -12.828125 C 37.945312 -12.828125 40.472656 -13.4375 42.703125 -14.65625 C 44.929688 -15.882812 46.640625 -17.578125 47.828125 -19.734375 L 65 -19.734375 C 62.769531 -13.191406 58.976562 -7.988281 53.625 -4.125 C 48.28125 -0.257812 42.113281 1.671875 35.125 1.671875 C 29.175781 1.671875 23.84375 0.28125 19.125 -2.5 C 14.40625 -5.289062 10.6875 -9.082031 7.96875 -13.875 C 5.257812 -18.675781 3.90625 -24.085938 3.90625 -30.109375 C 3.90625 -36.128906 5.257812 -41.535156 7.96875 -46.328125 C 10.6875 -51.117188 14.40625 -54.90625 19.125 -57.6875 C 23.84375 -60.476562 29.175781 -61.875 35.125 -61.875 C 41.289062 -61.875 46.710938 -60.441406 51.390625 -57.578125 C 56.078125 -54.722656 59.722656 -50.914062 62.328125 -46.15625 C 64.929688 -41.40625 66.234375 -36.128906 66.234375 -30.328125 Z M 35.125 -48.0625 C 31.476562 -48.0625 28.410156 -47.054688 25.921875 -45.046875 C 23.429688 -43.035156 21.738281 -40.25 20.84375 -36.6875 L 49.953125 -36.6875 C 47.578125 -44.269531 42.632812 -48.0625 35.125 -48.0625 Z M 35.125 -48.0625 "/></g></g><g style="fill:#7c86ff ;fill-opacity:1;"><g transform="translate(554.893935, 329.608287)"><path style="stroke:none" d="M 7.8125 0 L 7.8125 -81.953125 L 24.078125 -81.953125 L 24.078125 0 Z M 7.8125 0 "/></g></g><g style="fill:#7c86ff ;fill-opacity:1;"><g transform="translate(586.780741, 329.608287)"><path style="stroke:none" d=""/></g></g><g style="fill:#7c86ff ;fill-opacity:1;"><g transform="translate(613.427392, 329.608287)"><path style="stroke:none" d="M 40.703125 -61.875 C 46.722656 -61.875 52.109375 -60.5 56.859375 -57.75 C 61.617188 -55 65.375 -51.226562 68.125 -46.4375 C 70.875 -41.644531 72.25 -36.203125 72.25 -30.109375 C 72.25 -24.015625 70.875 -18.566406 68.125 -13.765625 C 65.375 -8.972656 61.617188 -5.179688 56.859375 -2.390625 C 52.109375 0.390625 46.722656 1.78125 40.703125 1.78125 C 37.578125 1.78125 34.601562 1.332031 31.78125 0.4375 C 28.957031 -0.445312 26.390625 -1.671875 24.078125 -3.234375 L 24.078125 21.75 L 7.8125 21.75 L 7.8125 -60.203125 L 18.625 -60.203125 L 21.40625 -54.75 C 23.9375 -56.976562 26.835938 -58.722656 30.109375 -59.984375 C 33.378906 -61.242188 36.910156 -61.875 40.703125 -61.875 Z M 39.359375 -13.609375 C 42.484375 -13.609375 45.289062 -14.332031 47.78125 -15.78125 C 50.269531 -17.226562 52.21875 -19.195312 53.625 -21.6875 C 55.039062 -24.175781 55.75 -26.984375 55.75 -30.109375 C 55.75 -33.222656 55.039062 -36.023438 53.625 -38.515625 C 52.21875 -41.015625 50.269531 -42.988281 47.78125 -44.4375 C 45.289062 -45.882812 42.484375 -46.609375 39.359375 -46.609375 C 36.160156 -46.609375 33.332031 -45.882812 30.875 -44.4375 C 28.425781 -42.988281 26.492188 -41.015625 25.078125 -38.515625 C 23.671875 -36.023438 22.96875 -33.222656 22.96875 -30.109375 C 22.96875 -26.984375 23.671875 -24.175781 25.078125 -21.6875 C 26.492188 -19.195312 28.425781 -17.226562 30.875 -15.78125 C 33.332031 -14.332031 36.160156 -13.609375 39.359375 -13.609375 Z M 39.359375 -13.609375 "/></g></g><g style="fill:#7c86ff ;fill-opacity:1;"><g transform="translate(689.465141, 329.608287)"><path style="stroke:none" d="M 7.8125 -68.234375 L 7.8125 -83.40625 L 24.078125 -83.40625 L 24.078125 -68.234375 Z M 7.8125 0 L 7.8125 -60.203125 L 24.078125 -60.203125 L 24.078125 0 Z M 7.8125 0 "/></g></g><g style="fill:#7c86ff ;fill-opacity:1;"><g transform="translate(721.351947, 329.608287)"><path style="stroke:none" d="M 47.28125 -60.203125 L 64.21875 -60.203125 L 40.25 0 L 25.203125 0 L 0.78125 -60.203125 L 18.0625 -60.203125 L 32.890625 -19.84375 Z M 47.28125 -60.203125 "/></g></g><g style="fill:#7c86ff ;fill-opacity:1;"><g transform="translate(786.463459, 329.608287)"><path style="stroke:none" d="M 36.453125 1.671875 C 30.210938 1.671875 24.640625 0.28125 19.734375 -2.5 C 14.828125 -5.289062 10.960938 -9.082031 8.140625 -13.875 C 5.316406 -18.675781 3.90625 -24.085938 3.90625 -30.109375 C 3.90625 -36.203125 5.316406 -41.644531 8.140625 -46.4375 C 10.960938 -51.226562 14.828125 -55 19.734375 -57.75 C 24.640625 -60.5 30.210938 -61.875 36.453125 -61.875 C 42.628906 -61.875 48.171875 -60.5 53.078125 -57.75 C 57.984375 -55 61.847656 -51.226562 64.671875 -46.4375 C 67.492188 -41.644531 68.90625 -36.203125 68.90625 -30.109375 C 68.90625 -24.085938 67.492188 -18.675781 64.671875 -13.875 C 61.847656 -9.082031 57.984375 -5.289062 53.078125 -2.5 C 48.171875 0.28125 42.628906 1.671875 36.453125 1.671875 Z M 36.453125 -13.609375 C 41.140625 -13.609375 44.96875 -15.128906 47.9375 -18.171875 C 50.914062 -21.222656 52.40625 -25.203125 52.40625 -30.109375 C 52.40625 -35.015625 50.914062 -38.988281 47.9375 -42.03125 C 44.96875 -45.082031 41.140625 -46.609375 36.453125 -46.609375 C 31.703125 -46.609375 27.835938 -45.082031 24.859375 -42.03125 C 21.890625 -38.988281 20.40625 -35.015625 20.40625 -30.109375 C 20.40625 -25.203125 21.890625 -21.222656 24.859375 -18.171875 C 27.835938 -15.128906 31.703125 -13.609375 36.453125 -13.609375 Z M 36.453125 -13.609375 "/></g></g><g style="fill:#7c86ff ;fill-opacity:1;"><g transform="translate(859.267905, 329.608287)"><path style="stroke:none" d="M 37.234375 -14.5 L 44.59375 -14.5 L 44.59375 0 L 33.109375 0 C 26.492188 0 21.269531 -1.910156 17.4375 -5.734375 C 13.613281 -9.566406 11.703125 -14.828125 11.703125 -21.515625 L 11.703125 -47.171875 L 0.78125 -47.171875 L 0.78125 -50.625 L 24.640625 -75.9375 L 27.65625 -75.9375 L 27.65625 -60.203125 L 44.265625 -60.203125 L 44.265625 -47.171875 L 27.984375 -47.171875 L 27.984375 -23.640625 C 27.984375 -20.742188 28.78125 -18.492188 30.375 -16.890625 C 31.976562 -15.296875 34.265625 -14.5 37.234375 -14.5 Z M 37.234375 -14.5 "/></g></g><g style="fill:#7c86ff ;fill-opacity:1;"><g transform="translate(907.209602, 329.608287)"><path style="stroke:none" d="M 29.21875 1.671875 C 24.15625 1.671875 19.726562 0.78125 15.9375 -1 C 12.15625 -2.78125 9.203125 -5.285156 7.078125 -8.515625 C 4.960938 -11.753906 3.90625 -15.53125 3.90625 -19.84375 L 19.734375 -19.84375 C 19.804688 -17.164062 20.769531 -15.15625 22.625 -13.8125 C 24.488281 -12.476562 26.867188 -11.8125 29.765625 -11.8125 C 32.078125 -11.8125 34.085938 -12.3125 35.796875 -13.3125 C 37.503906 -14.320312 38.359375 -15.832031 38.359375 -17.84375 C 38.359375 -19.925781 37.222656 -21.394531 34.953125 -22.25 C 32.679688 -23.101562 29.953125 -23.789062 26.765625 -24.3125 C 24.378906 -24.675781 21.90625 -25.191406 19.34375 -25.859375 C 16.78125 -26.535156 14.421875 -27.503906 12.265625 -28.765625 C 10.109375 -30.023438 8.34375 -31.769531 6.96875 -34 C 5.59375 -36.238281 4.90625 -39.140625 4.90625 -42.703125 C 4.90625 -46.492188 5.925781 -49.835938 7.96875 -52.734375 C 10.007812 -55.640625 12.832031 -57.890625 16.4375 -59.484375 C 20.050781 -61.078125 24.3125 -61.875 29.21875 -61.875 C 34.039062 -61.875 38.253906 -61.035156 41.859375 -59.359375 C 45.472656 -57.691406 48.28125 -55.351562 50.28125 -52.34375 C 52.289062 -49.332031 53.296875 -45.820312 53.296875 -41.8125 L 37.796875 -41.8125 C 37.796875 -44.1875 36.992188 -45.96875 35.390625 -47.15625 C 33.796875 -48.351562 31.585938 -48.953125 28.765625 -48.953125 C 26.234375 -48.953125 24.257812 -48.410156 22.84375 -47.328125 C 21.4375 -46.253906 20.734375 -44.863281 20.734375 -43.15625 C 20.734375 -41.144531 21.847656 -39.765625 24.078125 -39.015625 C 26.304688 -38.273438 28.984375 -37.644531 32.109375 -37.125 C 34.566406 -36.675781 37.09375 -36.132812 39.6875 -35.5 C 42.289062 -34.875 44.707031 -33.929688 46.9375 -32.671875 C 49.164062 -31.410156 50.96875 -29.660156 52.34375 -27.421875 C 53.71875 -25.191406 54.40625 -22.257812 54.40625 -18.625 C 54.40625 -14.53125 53.363281 -10.957031 51.28125 -7.90625 C 49.207031 -4.863281 46.273438 -2.503906 42.484375 -0.828125 C 38.691406 0.835938 34.269531 1.671875 29.21875 1.671875 Z M 29.21875 1.671875 "/></g></g><g clip-rule="nonzero" clip-path="url(#88726fa3d3)"><path style=" stroke:none;fill-rule:nonzero;fill:#7c86ff ;fill-opacity:1;" d="M 81.234375 341.085938 L 55.464844 341.085938 L 55.464844 365.722656 L 81.234375 365.722656 L 81.234375 341.085938 L 98.851562 341.085938 L 98.851562 322.339844 L 81.234375 322.339844 Z M 63.664062 295.347656 L 46.089844 295.347656 L 46.089844 276.597656 L 63.664062 276.597656 L 63.664062 295.347656 L 81.234375 295.347656 L 81.234375 276.597656 L 98.851562 276.597656 L 98.851562 295.347656 L 81.234375 295.347656 L 81.234375 312.917969 L 63.664062 312.917969 Z M 182.042969 230.902344 L 223.074219 263.734375 L 264.105469 230.902344 L 264.105469 365.679688 L 100.027344 365.679688 L 100.027344 341.042969 L 125.796875 341.042969 L 125.796875 314.097656 L 178.511719 314.097656 L 178.511719 341.042969 L 151.566406 341.042969 L 151.566406 288.328125 L 125.796875 288.328125 L 125.796875 314.097656 L 100.027344 314.097656 L 100.027344 295.347656 L 117.597656 295.347656 L 117.597656 276.597656 L 100.027344 276.597656 L 100.027344 230.902344 L 141.058594 263.734375 Z M 182.042969 230.902344 "/></g><path style=" stroke:none;fill-rule:nonzero;fill:#ffffff;fill-opacity:1;" d="M 151.566406 314.140625 L 151.566406 341.085938 L 178.554688 341.085938 L 178.554688 314.140625 Z M 151.566406 314.140625 "/></g></svg>