<svg xmlns="http://www.w3.org/2000/svg" xmlns:xlink="http://www.w3.org/1999/xlink" width="1366" zoomAndPan="magnify" viewBox="0 0 1024.5 576" height="768" preserveAspectRatio="xMidYMid meet" version="1.2"><defs><clipPath id="9812c069ac"><path d="M 384.621094 209.257812 L 639.460938 209.257812 L 639.460938 366.679688 L 384.621094 366.679688 Z M 384.621094 209.257812 "/></clipPath></defs><g id="b907bcffcf"><g clip-rule="nonzero" clip-path="url(#9812c069ac)"><path style=" stroke:none;fill-rule:nonzero;fill:#615fff;fill-opacity:1;" d="M 425.703125 337.914062 L 395.613281 337.914062 L 395.613281 366.679688 L 425.703125 366.679688 L 425.703125 337.914062 L 446.273438 337.914062 L 446.273438 316.023438 L 425.703125 316.023438 Z M 405.1875 284.507812 L 384.667969 284.507812 L 384.667969 262.613281 L 405.1875 262.613281 L 405.1875 284.507812 L 425.703125 284.507812 L 425.703125 262.613281 L 446.273438 262.613281 L 446.273438 284.507812 L 425.703125 284.507812 L 425.703125 305.023438 L 405.1875 305.023438 Z M 543.414062 209.257812 L 591.324219 247.59375 L 639.234375 209.257812 L 639.234375 366.628906 L 447.648438 366.628906 L 447.648438 337.863281 L 477.738281 337.863281 L 477.738281 306.398438 L 539.292969 306.398438 L 539.292969 337.863281 L 507.828125 337.863281 L 507.828125 276.308594 L 477.738281 276.308594 L 477.738281 306.398438 L 447.648438 306.398438 L 447.648438 284.507812 L 468.164062 284.507812 L 468.164062 262.613281 L 447.648438 262.613281 L 447.648438 209.257812 L 495.558594 247.59375 Z M 543.414062 209.257812 "/></g><path style=" stroke:none;fill-rule:nonzero;fill:#ffffff;fill-opacity:1;" d="M 507.828125 306.449219 L 507.828125 337.914062 L 539.34375 337.914062 L 539.34375 306.449219 Z M 507.828125 306.449219 "/></g></svg>